g caixa
v -0.596329 0.118034 -0.166447
v 0.596329 0.118034 -0.166447
v 0.596329 0.118034 0.166447
v -0.596330 0.118034 0.166447
v 0.596329 1.656914 0.166447
v 0.596330 1.656914 -0.166447
v -0.596329 1.656914 -0.166447
v -0.596330 1.656914 0.166447
vt 0.000001 0.313549
vt 0.371350 0.313549
vt 0.371350 0.417200
vt 0.000000 0.417200
vt 0.371349 0.896349
vt 0.371350 1.000000
vt 0.000000 1.000000
vt 0.000000 0.896349
vt 0.371350 0.417200
vt 0.475000 0.417200
vt 0.371349 0.896349
vt 0.475000 0.896349
vt 0.000000 0.417200
vt 0.371350 0.417200
vt 0.371349 0.896349
vt 0.000000 0.896349
vt 0.846349 0.417200
vt 0.950000 0.417200
vt 0.950000 0.896349
vt 0.846349 0.896349
vt 0.846349 0.896349
vt 0.475000 0.896349
vt 0.475000 0.417200
vt 0.846349 0.417200
vn 0.000000 -1.000000 0.000000
vn 0.000000 -1.000000 0.000000
vn 0.000000 -1.000000 0.000000
vn 0.000000 -1.000000 0.000000
vn 0.000000 1.000000 0.000000
vn 0.000000 1.000000 0.000000
vn 0.000000 1.000000 0.000000
vn 0.000000 1.000000 0.000000
vn 1.000000 0.000000 0.000000
vn 1.000000 0.000000 0.000000
vn 1.000000 0.000000 0.000000
vn 1.000000 0.000000 0.000000
vn 0.000000 0.000000 1.000000
vn 0.000000 0.000000 1.000000
vn 0.000000 0.000000 1.000000
vn 0.000000 0.000000 1.000000
vn -1.000000 -0.000000 -0.000000
vn -1.000000 -0.000000 -0.000000
vn -1.000000 -0.000000 -0.000000
vn -1.000000 -0.000000 -0.000000
vn 0.000000 0.000000 -1.000000
vn 0.000000 0.000000 -1.000000
vn 0.000000 0.000000 -1.000000
vn 0.000000 0.000000 -1.000000
f 1/1/1 2/2/2 3/3/3
f 3/3/3 4/4/4 1/1/1
f 5/5/5 6/6/6 7/7/7
f 7/7/7 8/8/8 5/5/5
f 3/9/9 2/10/10 5/11/11
f 6/12/12 5/11/11 2/10/10
f 4/13/13 3/14/14 5/15/15
f 5/15/15 8/16/16 4/13/13
f 1/17/17 4/18/18 8/19/19
f 8/19/19 7/20/20 1/17/17
f 7/21/21 6/22/22 2/23/23
f 2/23/23 1/24/24 7/21/21
