g mesa
v -0.545320 0.503632 -0.456379
v -0.503636 0.388298 -0.421494
v -0.503636 0.388298 0.421494
v -0.545320 0.503632 0.456379
v 0.545320 0.503632 0.456379
v 0.503636 0.388298 0.421494
v 0.503636 0.388298 -0.421494
v 0.545320 0.503632 -0.456379
v -0.460950 0.543666 0.385769
v -0.460950 0.543666 -0.385769
v 0.460950 0.543666 0.385769
v 0.460950 0.543666 -0.385769
v 0.365967 -0.108096 -0.315269
v 0.365967 -0.108096 -0.208329
v 0.346093 0.421494 -0.334014
v 0.346093 0.421494 -0.189584
v 0.479342 -0.108096 -0.315269
v 0.499216 0.421494 -0.334014
v 0.479342 -0.108096 -0.208329
v 0.499216 0.421494 -0.189584
v -0.346093 0.421494 -0.189584
v -0.365967 -0.108096 -0.208329
v -0.365967 -0.108096 -0.315269
v -0.346093 0.421494 -0.334014
v -0.499216 0.421494 -0.334014
v -0.479342 -0.108096 -0.315269
v -0.479342 -0.108096 -0.208329
v -0.499216 0.421494 -0.189584
v 0.346093 0.421494 0.189584
v 0.365967 -0.108096 0.208329
v 0.365967 -0.108096 0.315269
v 0.346093 0.421494 0.334014
v 0.499216 0.421494 0.334014
v 0.479342 -0.108096 0.315269
v 0.479342 -0.108096 0.208329
v 0.499216 0.421494 0.189584
v -0.365967 -0.108096 0.315269
v -0.365967 -0.108096 0.208329
v -0.346093 0.421494 0.334014
v -0.346093 0.421494 0.189584
v -0.479343 -0.108096 0.315269
v -0.499216 0.421494 0.334014
v -0.479343 -0.108096 0.208329
v -0.499216 0.421494 0.189584
vt 0.362858 0.543411
vt 0.319197 0.574506
vt 0.026861 0.544633
vt 0.035120 0.499391
vt 0.725003 0.548625
vt 0.770151 0.566270
vt 0.715380 0.961833
vt 0.761110 0.947851
vt 0.006394 1.000000
vt 0.000000 0.952417
vt 0.334480 0.923353
vt 0.374192 0.948268
vt 0.374192 0.948268
vt 0.334480 0.923353
vt 0.362858 0.543411
vt 0.319197 0.574506
vt 0.000000 0.952417
vt 0.026861 0.544633
vt 0.319197 0.574506
vt 0.334480 0.923353
vt 0.719869 0.543980
vt 0.693395 0.579286
vt 0.362858 0.543411
vt 0.397174 0.575771
vt 0.693395 0.579286
vt 0.685724 0.928690
vt 0.399766 0.917699
vt 0.397174 0.575771
vt 0.362858 0.543411
vt 0.397174 0.575771
vt 0.374192 0.948268
vt 0.399766 0.917699
vt 0.715380 0.961833
vt 0.685724 0.928690
vt 0.725003 0.548625
vt 0.693395 0.579286
vt 0.374192 0.948268
vt 0.399766 0.917699
vt 0.709062 0.965462
vt 0.685724 0.928690
vt 0.532075 0.191128
vt 0.521666 0.232171
vt 0.331343 0.159976
vt 0.318181 0.211915
vt 0.546911 0.145467
vt 0.532075 0.191128
vt 0.348593 0.109177
vt 0.331343 0.159976
vt 0.552041 0.095517
vt 0.546911 0.145467
vt 0.368723 0.068210
vt 0.348593 0.109177
vt 0.544411 0.049776
vt 0.552041 0.095517
vt 0.355693 0.015789
vt 0.368723 0.068210
vt 0.544411 0.049776
vt 0.584284 0.043094
vt 0.592276 0.086737
vt 0.552041 0.095517
vt 0.368723 0.068210
vt 0.348593 0.109177
vt 0.306414 0.056040
vt 0.355693 0.015789
vt 0.372458 0.361488
vt 0.568617 0.378520
vt 0.566583 0.418174
vt 0.369710 0.415044
vt 0.369710 0.415044
vt 0.566583 0.418174
vt 0.370937 0.471885
vt 0.567492 0.460260
vt 0.389988 0.252480
vt 0.581597 0.297808
vt 0.573828 0.336747
vt 0.379495 0.305070
vt 0.379495 0.305070
vt 0.573828 0.336747
vt 0.568617 0.378520
vt 0.372458 0.361488
vt 0.567492 0.460260
vt 0.566583 0.418174
vt 0.606281 0.417317
vt 0.607189 0.459403
vt 0.369710 0.415044
vt 0.370937 0.471885
vt 0.317323 0.473043
vt 0.316096 0.416202
vt 0.056362 0.120616
vt 0.252521 0.137648
vt 0.250487 0.177302
vt 0.053614 0.174172
vt 0.053614 0.174172
vt 0.250487 0.177302
vt 0.054841 0.231013
vt 0.251396 0.219389
vt 0.073892 0.011609
vt 0.265501 0.056936
vt 0.257732 0.095876
vt 0.063399 0.064199
vt 0.063399 0.064199
vt 0.257732 0.095876
vt 0.252521 0.137648
vt 0.056362 0.120616
vt 0.251396 0.219389
vt 0.250487 0.177302
vt 0.290185 0.176445
vt 0.291093 0.218532
vt 0.053614 0.174172
vt 0.054841 0.231013
vt 0.001227 0.232171
vt 0.000000 0.175330
vt 0.244820 0.277941
vt 0.260608 0.309703
vt 0.054796 0.311713
vt 0.075449 0.368813
vt 0.262561 0.244215
vt 0.244820 0.277941
vt 0.059371 0.248941
vt 0.054796 0.311713
vt 0.279677 0.345490
vt 0.300291 0.379754
vt 0.101226 0.424427
vt 0.129074 0.473043
vt 0.260608 0.309703
vt 0.279677 0.345490
vt 0.075449 0.368813
vt 0.101226 0.424427
vt 0.260608 0.309703
vt 0.244820 0.277941
vt 0.262561 0.244215
vt 0.291312 0.276735
vt 0.004042 0.246819
vt 0.059371 0.248941
vt 0.054796 0.311713
vt 0.000000 0.306776
vn -0.938879 -0.339314 0.000000
vn -0.938879 -0.339314 0.000000
vn -0.938879 -0.339314 0.000000
vn -0.938879 -0.339314 0.000000
vn 0.000000 -0.289005 0.955564
vn 0.000000 -0.289005 0.955564
vn 0.000000 -0.289005 0.955564
vn 0.000000 -0.289005 0.955564
vn 0.938879 -0.339314 0.000000
vn 0.938879 -0.339314 0.000000
vn 0.938879 -0.339314 0.000000
vn 0.938879 -0.339314 0.000000
vn 0.000000 -0.289005 -0.955564
vn 0.000000 -0.289005 -0.955564
vn 0.000000 -0.289005 -0.955564
vn 0.000000 -0.289005 -0.955564
vn 0.000000 -1.000000 0.000000
vn 0.000000 -1.000000 0.000000
vn 0.000000 -1.000000 0.000000
vn 0.000000 -1.000000 0.000000
vn -0.427956 0.901932 0.000000
vn -0.427956 0.901932 0.000000
vn -0.427956 0.901932 0.000000
vn -0.427956 0.901932 0.000000
vn 0.000000 1.000000 0.000000
vn 0.000000 1.000000 0.000000
vn 0.000000 1.000000 0.000000
vn 0.000000 1.000000 0.000000
vn 0.000000 0.868444 -0.492375
vn 0.000000 0.868444 -0.492375
vn 0.000000 0.868444 -0.492375
vn 0.000000 0.868444 -0.492375
vn 0.000000 0.868444 0.492375
vn 0.000000 0.868444 0.492375
vn 0.000000 0.868444 0.492375
vn 0.000000 0.868444 0.492375
vn 0.427956 0.901932 0.000000
vn 0.427956 0.901932 0.000000
vn 0.427956 0.901932 0.000000
vn 0.427956 0.901932 0.000000
vn -0.997610 -0.037437 0.000000
vn -0.997610 -0.037437 0.000000
vn -0.997610 -0.037437 0.000000
vn -0.997610 -0.037437 0.000000
vn 0.000000 -0.035339 -0.997687
vn 0.000000 -0.035339 -0.997687
vn 0.000000 -0.035339 -0.997687
vn 0.000000 -0.035339 -0.997687
vn 0.997610 -0.037437 0.000000
vn 0.997610 -0.037437 0.000000
vn 0.997610 -0.037437 0.000000
vn 0.997610 -0.037437 0.000000
vn 0.000000 -0.035339 0.997687
vn 0.000000 -0.035339 0.997687
vn 0.000000 -0.035339 0.997687
vn 0.000000 -0.035339 0.997687
vn 0.000000 -1.000000 0.000000
vn 0.000000 -1.000000 0.000000
vn 0.000000 -1.000000 0.000000
vn 0.000000 -1.000000 0.000000
vn 0.000000 1.000000 0.000000
vn 0.000000 1.000000 0.000000
vn 0.000000 1.000000 0.000000
vn 0.000000 1.000000 0.000000
vn 0.997610 -0.037437 0.000000
vn 0.997610 -0.037437 0.000000
vn 0.997610 -0.037437 0.000000
vn 0.997610 -0.037437 0.000000
vn 0.000000 -0.035339 -0.997687
vn 0.000000 -0.035339 -0.997687
vn 0.000000 -0.035339 -0.997687
vn 0.000000 -0.035339 -0.997687
vn -0.997610 -0.037437 0.000000
vn -0.997610 -0.037437 0.000000
vn -0.997610 -0.037437 0.000000
vn -0.997610 -0.037437 0.000000
vn 0.000000 -0.035339 0.997687
vn 0.000000 -0.035339 0.997687
vn 0.000000 -0.035339 0.997687
vn 0.000000 -0.035339 0.997687
vn 0.000000 -1.000000 0.000000
vn 0.000000 -1.000000 0.000000
vn 0.000000 -1.000000 0.000000
vn 0.000000 -1.000000 0.000000
vn 0.000000 1.000000 0.000000
vn 0.000000 1.000000 0.000000
vn 0.000000 1.000000 0.000000
vn 0.000000 1.000000 0.000000
vn -0.997610 -0.037437 0.000000
vn -0.997610 -0.037437 0.000000
vn -0.997610 -0.037437 0.000000
vn -0.997610 -0.037437 0.000000
vn 0.000000 -0.035339 0.997687
vn 0.000000 -0.035339 0.997687
vn 0.000000 -0.035339 0.997687
vn 0.000000 -0.035339 0.997687
vn 0.997610 -0.037437 0.000000
vn 0.997610 -0.037437 0.000000
vn 0.997610 -0.037437 0.000000
vn 0.997610 -0.037437 0.000000
vn 0.000000 -0.035339 -0.997687
vn 0.000000 -0.035339 -0.997687
vn 0.000000 -0.035339 -0.997687
vn 0.000000 -0.035339 -0.997687
vn 0.000000 -1.000000 0.000000
vn 0.000000 -1.000000 0.000000
vn 0.000000 -1.000000 0.000000
vn 0.000000 -1.000000 0.000000
vn 0.000000 1.000000 0.000000
vn 0.000000 1.000000 0.000000
vn 0.000000 1.000000 0.000000
vn 0.000000 1.000000 0.000000
vn 0.997610 -0.037437 0.000000
vn 0.997610 -0.037437 0.000000
vn 0.997610 -0.037437 0.000000
vn 0.997610 -0.037437 0.000000
vn 0.000000 -0.035339 0.997687
vn 0.000000 -0.035339 0.997687
vn 0.000000 -0.035339 0.997687
vn 0.000000 -0.035339 0.997687
vn -0.997610 -0.037437 0.000000
vn -0.997610 -0.037437 0.000000
vn -0.997610 -0.037437 0.000000
vn -0.997610 -0.037437 0.000000
vn 0.000000 -0.035339 -0.997687
vn 0.000000 -0.035339 -0.997687
vn 0.000000 -0.035339 -0.997687
vn 0.000000 -0.035339 -0.997687
vn 0.000000 -1.000000 0.000000
vn 0.000000 -1.000000 0.000000
vn 0.000000 -1.000000 0.000000
vn 0.000000 -1.000000 0.000000
vn 0.000000 1.000000 0.000000
vn 0.000000 1.000000 0.000000
vn 0.000000 1.000000 0.000000
vn 0.000000 1.000000 0.000000
f 1/1/1 2/2/2 3/3/3
f 3/3/3 4/4/4 1/1/1
f 4/5/5 3/6/6 5/7/7
f 6/8/8 5/7/7 3/6/6
f 5/9/9 6/10/10 7/11/11
f 7/11/11 8/12/12 5/9/9
f 8/13/13 7/14/14 1/15/15
f 2/16/16 1/15/15 7/14/14
f 6/17/17 3/18/18 2/19/19
f 2/19/19 7/20/20 6/17/17
f 4/21/21 9/22/22 1/23/23
f 10/24/24 1/23/23 9/22/22
f 9/25/25 11/26/26 12/27/27
f 12/27/27 10/28/28 9/25/25
f 1/29/29 10/30/30 8/31/31
f 12/32/32 8/31/31 10/30/30
f 5/33/33 11/34/34 4/35/35
f 9/36/36 4/35/35 11/34/34
f 8/37/37 12/38/38 5/39/39
f 11/40/40 5/39/39 12/38/38
f 13/41/41 14/42/42 15/43/43
f 16/44/44 15/43/43 14/42/42
f 17/45/45 13/46/46 18/47/47
f 15/48/48 18/47/47 13/46/46
f 19/49/49 17/50/50 20/51/51
f 18/52/52 20/51/51 17/50/50
f 14/53/53 19/54/54 16/55/55
f 20/56/56 16/55/55 19/54/54
f 14/57/57 13/58/58 17/59/59
f 17/59/59 19/60/60 14/57/57
f 20/61/61 18/62/62 15/63/63
f 15/63/63 16/64/64 20/61/61
f 21/65/65 22/66/66 23/67/67
f 23/67/67 24/68/68 21/65/65
f 24/69/69 23/70/70 25/71/71
f 26/72/72 25/71/71 23/70/70
f 25/73/73 26/74/74 27/75/75
f 27/75/75 28/76/76 25/73/73
f 28/77/77 27/78/78 22/79/79
f 22/79/79 21/80/80 28/77/77
f 26/81/81 23/82/82 22/83/83
f 22/83/83 27/84/84 26/81/81
f 24/85/85 25/86/86 28/87/87
f 28/87/87 21/88/88 24/85/85
f 29/89/89 30/90/90 31/91/91
f 31/91/91 32/92/92 29/89/89
f 32/93/93 31/94/94 33/95/95
f 34/96/96 33/95/95 31/94/94
f 33/97/97 34/98/98 35/99/99
f 35/99/99 36/100/100 33/97/97
f 36/101/101 35/102/102 30/103/103
f 30/103/103 29/104/104 36/101/101
f 34/105/105 31/106/106 30/107/107
f 30/107/107 35/108/108 34/105/105
f 32/109/109 33/110/110 36/111/111
f 36/111/111 29/112/112 32/109/109
f 37/113/113 38/114/114 39/115/115
f 40/116/116 39/115/115 38/114/114
f 41/117/117 37/118/118 42/119/119
f 39/120/120 42/119/119 37/118/118
f 43/121/121 41/122/122 44/123/123
f 42/124/124 44/123/123 41/122/122
f 38/125/125 43/126/126 40/127/127
f 44/128/128 40/127/127 43/126/126
f 38/129/129 37/130/130 41/131/131
f 41/131/131 43/132/132 38/129/129
f 44/133/133 42/134/134 39/135/135
f 39/135/135 40/136/136 44/133/133
