# Blender v2.79 (sub 0) OBJ File: '' Designed by: Diego Dimer
g switch_on
v 0.053509 -0.003708 -0.039208
v 0.056487 -0.010772 0.046151
v -0.046630 -0.010772 0.046151
v -0.043652 -0.003708 -0.039208
v 0.053509 0.226733 -0.039208
v 0.056487 0.233797 0.046152
v -0.046630 0.233797 0.046151
v -0.043652 0.226733 -0.039208
v 0.056487 -0.010772 0.046151
v -0.046630 -0.010772 0.046151
v 0.056487 0.233797 0.046152
v -0.046630 0.233797 0.046151
v 0.024963 0.038023 0.045756
v 0.002374 0.034877 0.049701
v 0.007483 0.199203 0.074170
v -0.015106 0.196058 0.078114
v 0.025085 0.026159 0.046151
v -0.015228 0.026159 0.046151
v 0.025085 0.207922 0.046151
v -0.015228 0.207922 0.046151
vn 0.0000 -0.9966 -0.0825
vn 0.0000 0.9966 -0.0825
vn 0.9994 0.0000 -0.0349
vn 0.1903 -0.1504 0.9701
vn -0.9994 -0.0000 -0.0349
vn 0.0000 0.0000 -1.0000
vn 0.0000 -0.0000 1.0000
vn 0.0717 -0.2103 0.9750
vn 0.8416 -0.0019 0.5402
vn -0.8946 -0.0820 0.4392
vn -0.0275 0.9479 0.3173

f 1//1 2//1 3//1 4//1
f 5//2 8//2 7//2 6//2
f 1//3 5//3 6//3 2//3
f 13//4 15//4 16//4 14//4
f 3//5 7//5 8//5 4//5
f 5//6 1//6 4//6 8//6
f 17//7 18//7 10//7 9//7
f 19//7 17//7 9//7 11//7
f 18//7 20//7 12//7 10//7
f 20//7 19//7 11//7 12//7
f 13//8 14//8 18//8 17//8
f 15//9 13//9 17//9 19//9
f 14//10 16//10 20//10 18//10
f 16//11 15//11 19//11 20//11
